<?xml version="1.0" standalone="no"?>
<!DOCTYPE svg PUBLIC "-//W3C//DTD SVG 20010904//EN"
 "http://www.w3.org/TR/2001/REC-SVG-20010904/DTD/svg10.dtd">
<svg version="1.0" xmlns="http://www.w3.org/2000/svg"
 width="665.000000pt" height="194.000000pt" viewBox="0 0 665.000000 194.000000"
 preserveAspectRatio="xMidYMid meet">

<g transform="translate(0.000000,194.000000) scale(0.100000,-0.100000)"
fill="#000000" stroke="none">
<path d="M2170 1065 l0 -135 30 0 30 0 0 100 0 100 35 0 35 0 0 -100 0 -100
200 0 200 0 0 100 0 100 35 0 35 0 0 -240 0 -240 -35 0 -35 0 0 105 0 105
-265 0 -265 0 0 -135 0 -135 100 0 100 0 0 65 0 65 -35 0 c-33 0 -35 -2 -35
-35 0 -33 -2 -35 -35 -35 l-35 0 0 70 0 70 200 0 200 0 0 -100 0 -100 100 0
100 0 0 305 0 305 -100 0 -100 0 0 -105 0 -105 -130 0 -130 0 0 105 0 105
-100 0 -100 0 0 -135z"/>
<path d="M2960 895 l0 -305 100 0 100 0 0 30 0 30 -65 0 -65 0 0 240 0 240 35
0 35 0 0 -205 0 -205 30 0 30 0 0 240 0 240 -100 0 -100 0 0 -305z"/>
<path d="M3290 1166 l0 -36 198 0 c108 0 214 -5 235 -11 48 -13 112 -69 140
-123 27 -53 29 -156 4 -203 -32 -61 -77 -101 -133 -123 -47 -17 -78 -20 -220
-20 l-164 0 2 173 3 172 150 3 c97 2 159 -2 178 -9 71 -30 90 -117 38 -170
-29 -28 -32 -29 -130 -29 l-101 0 0 76 0 75 -32 -3 -33 -3 0 -105 0 -105 141
0 c133 0 142 1 177 25 43 29 77 91 77 142 0 52 -40 119 -86 145 -37 21 -50 23
-241 23 l-203 0 0 -235 0 -235 214 0 c245 0 275 7 355 83 64 62 91 125 91 218
0 65 -4 85 -30 137 -35 68 -82 115 -149 146 -42 19 -67 21 -263 24 l-218 3 0
-35z"/>
<path d="M4050 895 l0 -305 330 0 330 0 0 100 0 100 -265 0 -265 0 0 -35 0
-35 235 0 235 0 0 -35 0 -35 -270 0 -270 0 0 240 0 240 270 0 270 0 0 -35 0
-35 -235 0 -235 0 0 -100 0 -100 205 0 205 0 0 30 0 30 -170 0 -170 0 0 40 0
40 230 0 230 0 0 100 0 100 -330 0 -330 0 0 -305z"/>
<path d="M4954 1031 l116 -169 0 -136 0 -136 100 0 100 0 0 133 0 132 120 173
119 172 -123 0 -123 0 -62 -93 c-33 -51 -61 -98 -61 -103 0 -6 8 -19 19 -28
18 -16 21 -13 77 69 58 85 58 85 101 85 l44 0 -86 -124 -85 -124 0 -116 0
-116 -35 0 -35 0 0 115 0 116 -78 112 c-43 62 -82 118 -86 125 -5 9 4 12 36
12 38 0 46 -4 62 -31 l19 -32 18 24 c24 31 24 36 -3 76 l-23 33 -123 0 -123 0
115 -169z"/>
</g>
</svg>
